<svg width="206" height="78" viewBox="0 0 206 78" fill="none" xmlns="http://www.w3.org/2000/svg">
<path d="M1.72134 18.8392C0.825242 13.9272 4.5983 9.4035 9.59146 9.4035H64.6889C68.5534 9.4035 71.8655 12.166 72.559 15.9678L80.1474 57.5643C81.0435 62.4763 77.2705 67 72.2773 67H17.1798C13.3153 67 10.0033 64.2375 9.30971 60.4357L1.72134 18.8392Z" fill="url(#paint0_linear)"/>
<path d="M64.1288 30.3209C62.5713 25.1833 66.4162 20 71.7848 20H174.483C178.007 20 181.116 22.3063 182.139 25.6791L194.871 67.6791C196.429 72.8167 192.584 78 187.215 78H84.5172C80.9929 78 77.8837 75.6937 76.8613 72.3209L64.1288 30.3209Z" fill="#3C3C3C"/>
<path d="M93.4387 56.96C94.1587 57.968 95.0347 58.772 96.0667 59.372C97.1227 59.948 98.2627 60.236 99.4867 60.236C100.711 60.236 101.635 59.9 102.259 59.228C102.907 58.556 103.231 57.74 103.231 56.78C103.231 55.82 102.847 54.956 102.079 54.188C101.311 53.42 100.375 52.76 99.2707 52.208C98.1907 51.656 97.1107 51.08 96.0307 50.48C94.9507 49.856 94.0267 49.028 93.2587 47.996C92.4907 46.964 92.1067 45.668 92.1067 44.108C92.1067 42.548 92.6587 41.216 93.7627 40.112C94.8907 38.984 96.6427 38.42 99.0187 38.42C101.395 38.42 103.135 39.008 104.239 40.184C105.367 41.36 105.931 42.896 105.931 44.792C105.931 45.08 105.895 45.38 105.823 45.692C105.199 45.908 104.575 46.016 103.951 46.016C103.327 46.016 102.871 45.992 102.583 45.944C102.607 45.752 102.619 45.5 102.619 45.188C102.619 43.796 102.247 42.68 101.503 41.84C100.783 40.976 99.8707 40.544 98.7667 40.544C97.6627 40.544 96.7867 40.844 96.1387 41.444C95.5147 42.02 95.2027 42.848 95.2027 43.928C95.2027 44.984 95.5747 45.908 96.3187 46.7C97.0867 47.468 98.0107 48.14 99.0907 48.716C100.195 49.292 101.287 49.904 102.367 50.552C103.471 51.176 104.395 52.028 105.139 53.108C105.907 54.164 106.291 55.484 106.291 57.068C106.291 58.628 105.643 59.936 104.347 60.992C103.075 62.024 101.503 62.54 99.6307 62.54C96.2467 62.54 93.5827 61.628 91.6387 59.804C91.7347 59.228 91.9267 58.7 92.2147 58.22C92.5267 57.74 92.8147 57.416 93.0787 57.248L93.4387 56.96ZM124.815 49.976L124.779 52.892C124.779 56.036 125.019 58.964 125.499 61.676C124.707 61.988 123.927 62.144 123.159 62.144C122.415 62.144 121.899 62.12 121.611 62.072C121.899 58.808 122.043 55.928 122.043 53.432C122.043 50.936 121.839 49.256 121.431 48.392C121.047 47.528 120.375 47.096 119.415 47.096C118.119 47.096 116.679 47.888 115.095 49.472C115.095 56.264 115.311 60.368 115.743 61.784C114.951 62.024 114.315 62.144 113.835 62.144C113.379 62.144 112.743 62.12 111.927 62.072C112.287 58.952 112.467 55.256 112.467 50.984C112.467 46.688 112.431 43.844 112.359 42.452C112.287 41.06 112.107 39.512 111.819 37.808C112.443 37.568 113.067 37.448 113.691 37.448C114.315 37.448 114.963 37.472 115.635 37.52C115.275 40.4 115.095 43.676 115.095 47.348C115.815 46.58 116.679 45.968 117.687 45.512C118.695 45.032 119.643 44.792 120.531 44.792C121.995 44.792 123.075 45.212 123.771 46.052C124.467 46.892 124.815 48.2 124.815 49.976ZM137.386 54.116C136.522 54.116 135.814 54.356 135.262 54.836C134.734 55.292 134.47 56.012 134.47 56.996C134.47 58.964 135.322 59.948 137.026 59.948C137.698 59.948 138.382 59.78 139.078 59.444C139.774 59.108 140.314 58.712 140.698 58.256C140.818 56.744 140.878 55.784 140.878 55.376C139.894 54.536 138.73 54.116 137.386 54.116ZM143.83 49.58L143.686 54.764C143.686 56.756 143.89 59.132 144.298 61.892C143.578 62.108 142.954 62.216 142.426 62.216C141.898 62.216 141.394 62.192 140.914 62.144L140.806 60.416C138.982 61.832 137.362 62.54 135.946 62.54C134.554 62.54 133.486 62.096 132.742 61.208C132.022 60.296 131.662 59.012 131.662 57.356C131.662 55.676 132.202 54.404 133.282 53.54C134.386 52.676 135.682 52.244 137.17 52.244C138.658 52.244 139.942 52.532 141.022 53.108C141.046 52.628 141.058 52.1 141.058 51.524C141.058 50.948 141.034 50.444 140.986 50.012C140.962 49.58 140.854 49.076 140.662 48.5C140.326 47.372 139.45 46.808 138.034 46.808C136.258 46.808 135.37 47.78 135.37 49.724L135.406 50.336C134.878 50.384 134.386 50.408 133.93 50.408C133.474 50.408 132.934 50.312 132.31 50.12C132.262 49.736 132.238 49.46 132.238 49.292C132.238 47.78 132.79 46.652 133.894 45.908C134.998 45.164 136.426 44.792 138.178 44.792C139.954 44.792 141.334 45.2 142.318 46.016C143.326 46.808 143.83 47.996 143.83 49.58ZM154.402 47.168C154.954 46.544 155.602 46.028 156.346 45.62C157.09 45.188 157.822 44.972 158.542 44.972C159.262 44.972 159.85 45.368 160.306 46.16C160.762 46.952 160.99 47.912 160.99 49.04C160.99 49.448 160.966 49.796 160.918 50.084C160.486 50.3 160.042 50.408 159.586 50.408C159.154 50.408 158.626 50.36 158.002 50.264C158.05 49.88 158.074 49.628 158.074 49.508C158.074 48.188 157.594 47.528 156.634 47.528C156.37 47.528 156.01 47.696 155.554 48.032C155.098 48.368 154.666 48.788 154.258 49.292C154.21 50.06 154.186 51.224 154.186 52.784C154.186 56.72 154.402 59.72 154.834 61.784C153.97 62.024 153.238 62.144 152.638 62.144C152.038 62.144 151.498 62.12 151.018 62.072C151.378 58.808 151.558 55.952 151.558 53.504C151.558 51.056 151.318 48.392 150.838 45.512C151.798 45.272 152.554 45.152 153.106 45.152C153.658 45.152 154.09 45.2 154.402 45.296V47.168ZM176.926 53.144C175.126 53.72 173.326 54.008 171.526 54.008C169.75 54.008 168.418 53.948 167.53 53.828C167.53 55.988 167.878 57.56 168.574 58.544C169.222 59.48 170.23 59.948 171.598 59.948C172.966 59.948 174.454 59.204 176.062 57.716C176.758 58.436 177.202 59.384 177.394 60.56C175.45 61.88 173.422 62.54 171.31 62.54C168.79 62.54 167.038 61.724 166.054 60.092C165.07 58.436 164.578 56.252 164.578 53.54C164.578 50.828 165.118 48.692 166.198 47.132C167.302 45.572 169.09 44.792 171.562 44.792C173.29 44.792 174.67 45.32 175.702 46.376C176.758 47.408 177.286 48.644 177.286 50.084C177.31 51.5 177.19 52.52 176.926 53.144ZM171.31 46.808C169.102 46.808 167.854 48.452 167.566 51.74C168.598 51.86 169.762 51.92 171.058 51.92C172.378 51.92 173.41 51.8 174.154 51.56C174.25 50.696 174.298 50.252 174.298 50.228C174.298 49.292 174.058 48.488 173.578 47.816C173.098 47.144 172.342 46.808 171.31 46.808Z" fill="white"/>
<path d="M7.7936 9.50674C6.84765 4.57409 10.6279 0 15.6504 0H74.9016C78.7389 0 82.0358 2.72465 82.7585 6.49327L90.813 48.4933C91.7589 53.4259 87.9787 58 82.9561 58H23.7049C19.8676 58 16.5708 55.2753 15.8481 51.5067L7.7936 9.50674Z" fill="#43A047"/>
<g filter="url(#filter0_d)">
<path d="M35.6107 27.084C36.3067 27.78 37.1347 28.128 38.0947 28.128C39.0787 28.128 39.8707 27.828 40.4707 27.228C41.4307 26.244 41.9107 24.78 41.9107 22.836C41.9107 19.26 40.3267 17.472 37.1587 17.472C36.1507 17.472 35.0227 17.736 33.7747 18.264C33.6067 20.16 33.5227 23.76 33.5227 29.064C33.5227 34.344 33.7267 37.632 34.1347 38.928C33.3427 39.168 32.6107 39.288 31.9387 39.288C31.2667 39.288 30.7267 39.264 30.3187 39.216C30.6547 36.408 30.8227 32.484 30.8227 27.444C30.8227 22.404 30.6187 18.732 30.2107 16.428C32.2267 15.756 34.6027 15.42 37.3387 15.42C40.0747 15.42 42.0427 16.068 43.2427 17.364C44.4427 18.636 45.0427 20.436 45.0427 22.764C45.0427 25.068 44.4307 26.94 43.2067 28.38C42.0067 29.82 40.1707 30.54 37.6987 30.54C36.7387 30.54 35.7907 30.36 34.8547 30C34.8547 29.352 34.9387 28.752 35.1067 28.2C35.2747 27.648 35.4427 27.276 35.6107 27.084ZM53.7997 29.784C53.7997 33.72 54.0157 36.72 54.4477 38.784C53.5837 39.024 52.8037 39.144 52.1077 39.144C51.4117 39.144 50.9197 39.12 50.6317 39.072C50.9917 35.808 51.1717 32.82 51.1717 30.108C51.1717 27.372 50.9557 24.84 50.5237 22.512C51.3397 22.272 52.0717 22.152 52.7197 22.152C53.3677 22.152 53.9077 22.2 54.3397 22.296C53.9797 26.016 53.7997 28.512 53.7997 29.784ZM54.4837 16.932C54.4837 18.42 53.7157 19.164 52.1797 19.164C50.9797 19.164 50.3797 18.552 50.3797 17.328C50.3797 15.816 51.1477 15.06 52.6837 15.06C53.8837 15.06 54.4837 15.684 54.4837 16.932ZM67.0727 21.792C68.6087 21.792 69.9167 22.176 70.9967 22.944C72.1007 23.712 72.6527 24.828 72.6527 26.292C72.6527 26.46 72.6287 26.736 72.5807 27.12C71.9567 27.312 71.4167 27.408 70.9607 27.408C70.5047 27.408 70.0127 27.384 69.4847 27.336C69.5087 27.168 69.5207 26.94 69.5207 26.652C69.5207 25.86 69.2807 25.188 68.8007 24.636C68.3447 24.084 67.6847 23.808 66.8207 23.808C64.5407 23.808 63.4007 26.004 63.4007 30.396C63.4007 34.764 64.6487 36.948 67.1447 36.948C68.3447 36.948 69.8087 36.204 71.5367 34.716C72.2327 35.436 72.6767 36.384 72.8687 37.56C70.8767 38.88 68.8847 39.54 66.8927 39.54C64.4687 39.54 62.7887 38.724 61.8527 37.092C60.9167 35.436 60.4487 33.264 60.4487 30.576C60.4487 27.864 60.9647 25.728 61.9967 24.168C63.0287 22.584 64.7207 21.792 67.0727 21.792Z" fill="#3C3C3C"/>
</g>
<defs>
<filter id="filter0_d" x="26.2107" y="15.06" width="50.658" height="32.48" filterUnits="userSpaceOnUse" color-interpolation-filters="sRGB">
<feFlood flood-opacity="0" result="BackgroundImageFix"/>
<feColorMatrix in="SourceAlpha" type="matrix" values="0 0 0 0 0 0 0 0 0 0 0 0 0 0 0 0 0 0 127 0"/>
<feOffset dy="4"/>
<feGaussianBlur stdDeviation="2"/>
<feColorMatrix type="matrix" values="0 0 0 0 0 0 0 0 0 0 0 0 0 0 0 0 0 0 0.25 0"/>
<feBlend mode="normal" in2="BackgroundImageFix" result="effect1_dropShadow"/>
<feBlend mode="normal" in="SourceGraphic" in2="effect1_dropShadow" result="shape"/>
</filter>
<linearGradient id="paint0_linear" x1="2.03919" y1="57" x2="62.8589" y2="82.8381" gradientUnits="userSpaceOnUse">
<stop offset="0.449561" stop-color="#3C3C3C"/>
<stop offset="1" stop-color="#43A047"/>
</linearGradient>
</defs>
</svg>
